<?xml version="1.0" encoding="utf-8"?>
<!-- Generator: Adobe Illustrator 23.0.3, SVG Export Plug-In . SVG Version: 6.00 Build 0)  -->
<svg version="1.1" id="Capa_1" xmlns="http://www.w3.org/2000/svg" xmlns:xlink="http://www.w3.org/1999/xlink" x="0px" y="0px"
	 viewBox="0 0 512 512" style="enable-background:new 0 0 512 512;" xml:space="preserve">
<style type="text/css">
	.st0{display:none;fill:#D0D3EC;}
	.st1{fill:#D0D3EC;}
	.st2{display:none;fill:#6B75CA;}
</style>
<g>
	<g>
		<g>
			<ellipse class="st0" cx="141.1" cy="208.9" rx="17.7" ry="17.3"/>
			<path class="st1" d="M29.8,130.9v98.9c0,9.5,7.9,17.3,17.7,17.3c9.8,0,17.7-7.7,17.7-17.3v-48c-6.1-0.2-12.1-0.5-18.2-0.8
				c6.1,0.3,12.1,0.5,18.2,0.8v-50.9c0-1.7,0.1-3.3,0.4-4.9c-9.6-7.7-19.8-14.8-29.6-23c9.7,8.2,20,15.3,29.6,23
				c2.4-16.8,17.1-29.8,34.9-29.8h5.1c-2.9-11.3-5-23-6.9-34.7C60.6,62.5,29.9,93.2,29.8,130.9z"/>
			<path class="st1" d="M411.4,61.4h-4.3c1.2,11.4,3.1,23.1,4.5,34.8c19.4,0.1,35.1,15.7,35.1,34.7v53.4c11.8,0.1,23.5,0.2,35.3,0.4
				v-53.8C482,92.5,450.3,61.4,411.4,61.4z"/>
			<path class="st0" d="M389.3,61.4V44.1c0-9.5-7.9-17.3-17.7-17.3c-9.8,0-17.7,7.7-17.7,17.3v17.3h-79.4V44.1
				c0-9.5-8-17.3-17.7-17.3c-9.8,0-17.7,7.7-17.7,17.3v17.3h-80.3V44.1c0-9.5-8-17.3-17.7-17.3c-9.8,0-17.7,7.7-17.7,17.3v17.4
				h-22.9c-0.6,0-1.2,0-1.8,0c1.9,11.7,4,23.3,6.9,34.7h17.8v17.3c0,9.5,8,17.3,17.7,17.3c9.8,0,17.7-7.7,17.7-17.3V96.2h80.3v17.3
				c0,9.5,7.9,17.3,17.7,17.3c9.8,0,17.7-7.7,17.7-17.3V96.2h45.2c5.2-11.8,10.1-23.9,18.3-34.2c-8.2,10.3-13.2,22.4-18.3,34.2h34.2
				v17.3c0,9.5,8,17.3,17.7,17.3c9.8,0,17.7-7.7,17.7-17.3V96.2h22.1c0.1,0,0.1,0,0.2,0c-1.4-11.7-3.3-23.4-4.5-34.8H389.3z"/>
			<path class="st1" d="M446.7,184.3v217.2c0,19.1-15.8,34.7-35.3,34.7h-135c-9.8,0-17.7,7.8-17.7,17.3s8,17.3,17.7,17.3h135
				c38.9,0,70.6-31.1,70.6-69.4V184.6C470.2,184.5,458.5,184.3,446.7,184.3z"/>
			<path class="st2" d="M136.7,261c58.9,0,106.8,47.1,106.8,105s-47.9,105-106.8,105S29.9,423.9,29.9,366S77.8,261,136.7,261z
				 M136.7,436.2c39.4,0,71.5-31.5,71.5-70.3s-32.1-70.3-71.5-70.3s-71.5,31.5-71.5,70.3S97.3,436.2,136.7,436.2z"/>
			<path class="st2" d="M111.1,348.6h7.9v-18.2c0-9.6,7.9-17.3,17.7-17.3s17.7,7.8,17.7,17.3V366c0,9.6-7.9,17.3-17.7,17.3h-25.6
				c-9.7,0-17.7-7.8-17.7-17.3S101.4,348.6,111.1,348.6z"/>
			<ellipse class="st0" cx="217.9" cy="208.9" rx="17.7" ry="17.3"/>
			<ellipse class="st0" cx="294.7" cy="284.4" rx="17.7" ry="17.3"/>
			<ellipse class="st0" cx="371.5" cy="208.9" rx="17.7" ry="17.3"/>
			<ellipse class="st0" cx="371.5" cy="284.4" rx="17.7" ry="17.3"/>
			<ellipse class="st0" cx="371.5" cy="359.9" rx="17.7" ry="17.3"/>
			<ellipse class="st0" cx="294.7" cy="359.9" rx="17.7" ry="17.3"/>
			<ellipse class="st0" cx="294.7" cy="208.9" rx="17.7" ry="17.3"/>
		</g>
	</g>
</g>
<path class="st1" d="M414,97H101c-6.6,0-12-5.4-12-12V72.5c0-6.6,5.4-12,12-12h313c6.6,0,12,5.4,12,12V85C426,91.6,420.6,97,414,97z
	"/>
</svg>
