<?xml version="1.0" encoding="utf-8"?>
<!-- Generator: Adobe Illustrator 23.0.3, SVG Export Plug-In . SVG Version: 6.00 Build 0)  -->
<svg version="1.1" id="Capa_1" xmlns="http://www.w3.org/2000/svg" xmlns:xlink="http://www.w3.org/1999/xlink" x="0px" y="0px"
	 viewBox="0 0 512 512" style="enable-background:new 0 0 512 512;" xml:space="preserve">
<style type="text/css">
	.st0{fill:#D0D3EC;}
	.st1{fill:#6B75CA;}
</style>
<g>
	<g>
		<g>
			<ellipse class="st0" cx="141.1" cy="208.9" rx="17.7" ry="17.3"/>
			<path class="st0" d="M100.5,61.5h22.9V44.1c0-9.6,7.9-17.3,17.7-17.3c9.7,0,17.7,7.8,17.7,17.3v17.3h80.3V44.1
				c0-9.6,7.9-17.3,17.7-17.3c9.7,0,17.7,7.8,17.7,17.3v17.3h79.4V44.1c0-9.6,7.9-17.3,17.7-17.3s17.7,7.8,17.7,17.3v17.3h22.1
				c38.9,0,70.6,31.1,70.6,69.4v270.6c0,38.3-31.7,69.4-70.6,69.4h-135c-9.7,0-17.7-7.8-17.7-17.3s7.9-17.3,17.7-17.3h135
				c19.5,0,35.3-15.6,35.3-34.7V130.9c0-19.1-15.8-34.7-35.3-34.7h-22.1v17.3c0,9.6-7.9,17.3-17.7,17.3c-9.7,0-17.7-7.8-17.7-17.3
				V96.2h-79.4v17.3c0,9.6-7.9,17.3-17.7,17.3s-17.7-7.8-17.7-17.3V96.2h-80.3v17.3c0,9.6-7.9,17.3-17.7,17.3
				c-9.7,0-17.7-7.8-17.7-17.3V96.2h-22.9c-19.5,0-35.3,15.6-35.3,34.7v98.9c0,9.6-7.9,17.3-17.7,17.3s-17.7-7.8-17.7-17.3v-98.9
				C29.9,92.6,61.6,61.5,100.5,61.5z"/>
			<path class="st1" d="M136.7,261c58.9,0,106.8,47.1,106.8,105s-47.9,105-106.8,105s-106.8-47.1-106.8-105S77.8,261,136.7,261z
				 M136.7,436.2c39.4,0,71.5-31.5,71.5-70.3s-32.1-70.3-71.5-70.3s-71.5,31.5-71.5,70.3S97.3,436.2,136.7,436.2z"/>
			<path class="st1" d="M111.1,348.6h7.9v-18.2c0-9.6,7.9-17.3,17.7-17.3s17.7,7.8,17.7,17.3v35.6c0,9.6-7.9,17.3-17.7,17.3h-25.6
				c-9.7,0-17.7-7.8-17.7-17.3S101.4,348.6,111.1,348.6z"/>
			<ellipse class="st0" cx="217.9" cy="208.9" rx="17.7" ry="17.3"/>
			<ellipse class="st0" cx="294.7" cy="284.4" rx="17.7" ry="17.3"/>
			<ellipse class="st0" cx="371.5" cy="208.9" rx="17.7" ry="17.3"/>
			<ellipse class="st0" cx="371.5" cy="284.4" rx="17.7" ry="17.3"/>
			<ellipse class="st0" cx="371.5" cy="359.9" rx="17.7" ry="17.3"/>
			<ellipse class="st0" cx="294.7" cy="359.9" rx="17.7" ry="17.3"/>
			<ellipse class="st0" cx="294.7" cy="208.9" rx="17.7" ry="17.3"/>
		</g>
	</g>
</g>
</svg>
