<svg xmlns="http://www.w3.org/2000/svg" x="0px" y="0px"
width="48" height="48"
viewBox="0 0 172 172"
style=" fill:#000000;"><g fill="none" fill-rule="nonzero" stroke="none" stroke-width="1" stroke-linecap="butt" stroke-linejoin="miter" stroke-miterlimit="10" stroke-dasharray="" stroke-dashoffset="0" font-family="none" font-weight="none" font-size="none" text-anchor="none" style="mix-blend-mode: normal"><path d="M0,172v-172h172v172z" fill="none"></path><g><path d="M157.66667,86c0,39.57433 -32.09233,71.66667 -71.66667,71.66667c-39.57433,0 -71.66667,-32.09233 -71.66667,-71.66667c0,-39.57433 32.09233,-71.66667 71.66667,-71.66667c39.57433,0 71.66667,32.09233 71.66667,71.66667z" fill="#4caf50"></path><path d="M86,14.33333v71.66667l28.66667,14.33333l-31.68742,57.33333c1.13592,0 1.88483,0 3.02075,0c39.60658,0 71.66667,-32.06008 71.66667,-71.66667c0,-39.60658 -32.06008,-71.66667 -71.66667,-71.66667z" fill="#ffc107"></path><path d="M157.66667,86c0,39.57433 -32.09233,71.66667 -71.66667,71.66667c-39.57433,0 -71.66667,-32.09233 -71.66667,-71.66667c0,-39.57433 32.09233,-71.66667 71.66667,-71.66667c39.57433,0 71.66667,32.09233 71.66667,71.66667z" fill="#4caf50"></path><path d="M86,14.33333v71.66667l28.66667,14.33333l-31.68742,57.33333c1.13592,0 1.88483,0 3.02075,0c39.60658,0 71.66667,-32.06008 71.66667,-71.66667c0,-39.60658 -32.06008,-71.66667 -71.66667,-71.66667z" fill="#ffc107"></path><path d="M149.92667,53.75h-63.92667v46.58333l-10.75,-3.58333l-49.59333,-49.235h-0.07167c12.685,-19.95917 35.00917,-33.18167 60.415,-33.18167c27.95,0 52.1375,16.05333 63.92667,39.41667z" fill="#f44336"></path><path d="M25.6495,47.52933l31.68742,53.2555l17.91308,-4.03483z" fill="#dd2c00"></path><path d="M82.97925,157.66667l32.0135,-57.54475l-14.65942,-10.53858z" fill="#558b2f"></path><path d="M150.01625,53.75h-64.01625l-5.65808,16.41167z" fill="#f9a825"></path><path d="M118.25,86c0,17.80558 -14.44442,32.25 -32.25,32.25c-17.80558,0 -32.25,-14.44442 -32.25,-32.25c0,-17.80558 14.44442,-32.25 32.25,-32.25c17.80558,0 32.25,14.44442 32.25,32.25z" fill="#ffffff"></path><path d="M111.08333,86c0,13.85675 -11.22658,25.08333 -25.08333,25.08333c-13.85675,0 -25.08333,-11.22658 -25.08333,-25.08333c0,-13.85675 11.22658,-25.08333 25.08333,-25.08333c13.85675,0 25.08333,11.22658 25.08333,25.08333z" fill="#2196f3"></path></g></g></svg>