<?xml version="1.0" encoding="utf-8"?>
<!-- Generator: Adobe Illustrator 23.0.3, SVG Export Plug-In . SVG Version: 6.00 Build 0)  -->
<svg version="1.1" xmlns="http://www.w3.org/2000/svg" xmlns:xlink="http://www.w3.org/1999/xlink" x="0px" y="0px"
	 viewBox="0 0 64 64" style="enable-background:new 0 0 64 64;" xml:space="preserve">
<style type="text/css">
	.st0{fill:none;stroke:#E1E3F4;stroke-width:3;stroke-miterlimit:10;}
	.st1{fill:#5C65AD;stroke:#5C65AD;stroke-width:0.75;stroke-miterlimit:10;}
	.st2{display:none;fill:#5C65AD;stroke:#5C65AD;stroke-width:0.75;stroke-miterlimit:10;}
	.st3{fill:#5C65AD;stroke:#5C65AD;stroke-width:0.4;stroke-miterlimit:10;}
	.st4{display:none;}
</style>
<g id="Layer_1_copy">
	<circle class="st0" cx="32" cy="32.4" r="28"/>
	<path class="st1" d="M16.9,44.6L16.9,44.6c-0.1-0.6,0.3-1.2,1-1.3l21.4-3.4c0.6-0.1,1.2,0.3,1.3,1v0c0.1,0.6-0.3,1.2-1,1.3
		l-21.4,3.4C17.6,45.6,17,45.2,16.9,44.6z"/>
	<path class="st1" d="M39.1,41.9L39.1,41.9c-0.6-0.2-0.9-0.9-0.7-1.5L46,20.1c0.2-0.6,0.9-0.9,1.5-0.7v0c0.6,0.2,0.9,0.9,0.7,1.5
		l-7.6,20.3C40.4,41.8,39.7,42.1,39.1,41.9z"/>
	<path class="st1" d="M24.5,24.1L24.5,24.1c-0.1-0.6,0.3-1.2,1-1.3l21.4-3.4c0.6-0.1,1.2,0.3,1.3,1v0c0.1,0.6-0.3,1.2-1,1.3L25.9,25
		C25.2,25.1,24.6,24.7,24.5,24.1z"/>
	<path class="st2" d="M15.3,47.4L15.3,47.4c-0.7-0.3-1-1-0.8-1.7l8.7-23.3c0.3-0.7,1-1,1.7-0.8h0c0.7,0.3,1,1,0.8,1.7L17,46.6
		C16.7,47.3,16,47.6,15.3,47.4z"/>
	<path class="st3" d="M19.6,33.5L19.6,33.5c-0.7-0.4-0.9-1.3-0.4-2l5.2-8.1c0.4-0.7,1.3-0.9,2-0.4l0,0c0.7,0.4,0.9,1.3,0.4,2
		L21.6,33C21.2,33.7,20.3,33.9,19.6,33.5z"/>
	<circle class="st3" cx="32.1" cy="32.4" r="3.3"/>
</g>
<g id="Layer_1" class="st4">
</g>
</svg>
