<?xml version="1.0" encoding="utf-8"?>
<!-- Generator: Adobe Illustrator 23.0.3, SVG Export Plug-In . SVG Version: 6.00 Build 0)  -->
<svg version="1.1" id="Layer_1" xmlns="http://www.w3.org/2000/svg" xmlns:xlink="http://www.w3.org/1999/xlink" x="0px" y="0px"
	 viewBox="0 0 24 24" style="enable-background:new 0 0 24 24;" xml:space="preserve">
<style type="text/css">
	.st0{fill:none;}
	.st1{fill:#6B75CA;}
	.st2{fill:#E1E3F4;}
</style>
<g>
	<path class="st0" d="M0,24V0h24v24H0z"/>
	<g>
		<circle class="st1" cx="12" cy="3" r="1"/>
		<path class="st1" d="M11.3,17.7c0.4,0.4,1,0.4,1.4,0l4-4c0.3-0.3,0.4-0.6,0.3-1c-0.1-0.4-0.4-0.6-0.7-0.7c-0.4-0.1-0.7,0-1,0.3
			L13,14.6V7c0-0.3-0.1-0.5-0.3-0.7S12.3,6,12,6c-0.6,0-1,0.5-1,1v7.6l-2.3-2.3C8.5,12.1,8.3,12,8,12c-0.4,0-0.8,0.2-0.9,0.6
			S7,13.4,7.3,13.7L11.3,17.7z"/>
		<path class="st2" d="M21.5,17.1c-0.3-0.2-0.7-0.2-1,0C20.2,17.3,20,17.6,20,18v2H4v-2c0-0.3-0.1-0.5-0.3-0.7S3.3,17,3,17
			c-0.6,0-1,0.5-1,1v2c0,1.1,0.9,2,2,2h16c1.1,0,2-0.9,2-2v-2C22,17.6,21.8,17.3,21.5,17.1z"/>
	</g>
</g>
</svg>
