<?xml version="1.0" encoding="utf-8"?>
<!-- Generator: Adobe Illustrator 23.0.3, SVG Export Plug-In . SVG Version: 6.00 Build 0)  -->
<svg version="1.1" id="Layer_1" xmlns="http://www.w3.org/2000/svg" xmlns:xlink="http://www.w3.org/1999/xlink" x="0px" y="0px"
	 viewBox="0 0 64 64" style="enable-background:new 0 0 64 64;" xml:space="preserve">
<style type="text/css">
	.st0{fill:none;}
	.st1{display:none;fill:#FFFFFF;}
	.st2{fill:#E1E3F4;}
	.st3{fill:#6B75CA;}
</style>
<g>
	<path class="st0" d="M0,64V0h64v64H0z"/>
	<g>
		<path class="st1" d="M43,4.5H16c-2.8,0-5,2.2-5,5v45c0,2.8,2.2,5,5,5h32c2.8,0,5-2.3,5-5v-40C53,9,48.5,4.5,43,4.5z"/>
		<path class="st1" d="M3.9,43.9C0,47.8,0,54.2,3.9,58.1s10.2,3.9,14.1,0s3.9-10.2,0-14.1S7.8,40,3.9,43.9z"/>
		<path class="st1" d="M14.4,52.5h-7C6.6,52.5,6,51.9,6,51c0-0.8,0.6-1.5,1.5-1.5h7c0.8,0,1.5,0.6,1.5,1.5
			C16,51.8,15.3,52.5,14.4,52.5z"/>
		<g>
			<path class="st2" d="M48,61c3.6,0,6.5-2.9,6.5-6.5l0-33.5c0-0.8-0.6-1.5-1.5-1.5l0,0c-0.8,0-1.5,0.6-1.5,1.5l0,33.5
				c0,2-1.5,3.5-3.5,3.5H26c-0.8,0-1.5,0.6-1.5,1.5c0,0.8,0.6,1.5,1.5,1.5L48,61z M51.2,6.4C49,4.2,46.1,3,43,3l0,0l0,0l0,0H16
				c-3.6,0-6.5,2.9-6.5,6.5v24c0,0.8,0.6,1.5,1.5,1.5c0.8,0,1.5-0.6,1.5-1.5v-24c0-2,1.6-3.5,3.5-3.5h25.5v3.5
				c0,3.6,2.9,6.5,6.5,6.5h4.8c0,0,0.1,0,0.2,0l0,0c0.6,0,1.2-0.4,1.4-0.9c0.1-0.2,0.2-0.4,0.2-0.6c0,0,0-0.2,0-0.2
				C54.5,11.3,53.3,8.5,51.2,6.4L51.2,6.4z M44.5,9.5V6.2c1.7,0.3,3.3,1.1,4.5,2.4c1.3,1.2,2,2.8,2.4,4.5H48
				C46,13,44.5,11.5,44.5,9.5z"/>
		</g>
	</g>
</g>
<path class="st3" d="M45,35.6H18.6c-1,0-1.8-0.8-1.8-1.8v0c0-1,0.8-1.8,1.8-1.8H45c1,0,1.8,0.8,1.8,1.8v0C46.8,34.8,46,35.6,45,35.6
	z"/>
<path class="st3" d="M45.2,29.1H29.6c-1,0-1.8-0.8-1.8-1.8v0c0-1,0.8-1.8,1.8-1.8h15.6c1,0,1.8,0.8,1.8,1.8v0
	C47,28.3,46.2,29.1,45.2,29.1z"/>
<circle class="st3" cx="20.6" cy="27.3" r="2.8"/>
</svg>
