<?xml version="1.0" encoding="utf-8"?>
<!-- Generator: Adobe Illustrator 23.0.3, SVG Export Plug-In . SVG Version: 6.00 Build 0)  -->
<svg version="1.1" id="Layer_1" xmlns="http://www.w3.org/2000/svg" xmlns:xlink="http://www.w3.org/1999/xlink" x="0px" y="0px"
	 viewBox="0 0 80 80" style="enable-background:new 0 0 80 80;" xml:space="preserve">
<style type="text/css">
	.st0{display:none;fill:none;}
	.st1{fill:none;stroke:#6B75CA;stroke-width:5.8;stroke-miterlimit:10;}
	.st2{fill:#E1E3F4;stroke:#E1E3F4;stroke-miterlimit:10;}
	.st3{display:none;fill:none;stroke:#E1E3F4;stroke-width:5.8;stroke-miterlimit:10;}
	.st4{fill:#6B75CA;}
</style>
<g>
	<path class="st0" d="M0,80V0h80v80H0z"/>
	<g>
		<path class="st1" d="M71,55.6H47.3c-6,0-10.9-4.9-10.9-10.9v0c0-6,4.9-10.9,10.9-10.9H71"/>
		<path class="st2" d="M18,10h-5.5C8.4,10,5,13.4,5,17.5v31c0.7-0.4,1.6-0.7,2.6-0.7c0.9,0,1.7,0.2,2.4,0.6V25h57.5
			c1.4,0,2.5,1.1,2.5,2.5v35c0,1.4-1.1,2.5-2.5,2.5H21.9c0.7,1.6,0.6,3.5-0.2,5h45.9c4.1,0,7.5-3.4,7.5-7.5v-35
			c0-4.1-3.4-7.5-7.5-7.5H34l-3.3-6.1c-1.3-2.4-3.8-3.9-6.6-3.9H18 M18.1,15h6c0.9,0,1.8,0.5,2.2,1.3l2,3.7H10v-2.5
			c0-1.4,1.1-2.5,2.5-2.5H18.1"/>
	</g>
</g>
<path class="st3" d="M68,33.8h8.2c6,0,10.9,4.9,10.9,10.9v0c0,6-4.9,10.9-10.9,10.9H68"/>
<circle class="st4" cx="53.7" cy="44.7" r="5.3"/>
<path class="st2" d="M7.5,54.1L7.5,54.1C6.1,54.1,5,53,5,51.6V32.8c0-1.4,1.1-2.5,2.5-2.5h0c1.4,0,2.5,1.1,2.5,2.5v18.8
	C10,53,8.9,54.1,7.5,54.1z"/>
<path class="st2" d="M10,67.5L10,67.5c0-1.4,1.1-2.5,2.5-2.5h18.8c1.4,0,2.5,1.1,2.5,2.5l0,0c0,1.4-1.1,2.5-2.5,2.5H12.5
	C11.1,70,10,68.9,10,67.5z"/>
</svg>
