<?xml version="1.0" encoding="utf-8"?>
<!-- Generator: Adobe Illustrator 23.0.3, SVG Export Plug-In . SVG Version: 6.00 Build 0)  -->
<svg version="1.1" xmlns="http://www.w3.org/2000/svg" xmlns:xlink="http://www.w3.org/1999/xlink" x="0px" y="0px"
	 viewBox="0 0 64 64" style="enable-background:new 0 0 64 64;" xml:space="preserve">
<style type="text/css">
	.st0{display:none;fill:none;stroke:#5C65AD;stroke-miterlimit:10;}
	.st1{fill:none;stroke:#5C65AD;stroke-width:5;stroke-miterlimit:10;}
	.st2{fill:#5C65AD;stroke:#5C65AD;stroke-width:2;stroke-miterlimit:10;}
	.st3{display:none;fill:#1FD4AF;stroke:#5C65AD;stroke-miterlimit:10;}
	.st4{display:none;fill:#FFFFFF;stroke:#5C65AD;stroke-miterlimit:10;}
	.st5{fill:#5C65AD;stroke:#5C65AD;stroke-width:3;stroke-miterlimit:10;}
	.st6{fill:#5C65AD;stroke:#5C65AD;stroke-miterlimit:10;}
	.st7{display:none;}
</style>
<g id="Layer_1_copy">
	<g>
		<path class="st0" d="M-0.1,60V-4h64v64H-0.1z"/>
		<g>
			<path class="st1" d="M54.2,30.8v20.9c0,2.9-2.4,5.3-5.3,5.3H22.1"/>
			<path class="st2" d="M59.4,24.5c-0.4,0-0.8-0.1-1-0.3l-24-15.7c-0.6-0.4-1.5-0.7-2.5-0.7S30.1,8,29.4,8.5l-24,15.7
				c-0.6,0.4-1.6,0.4-2.1,0c-0.6-0.4-0.6-1,0-1.4l24-15.7c1.3-0.8,2.8-1.2,4.6-1.2c1.8,0,3.3,0.5,4.6,1.2l24,15.7
				c0.6,0.4,0.6,1,0,1.4C60.2,24.4,59.8,24.5,59.4,24.5z"/>
			<path class="st3" d="M53.4,39.5c-5.5,0-10,4.5-10,10s4.5,10,10,10s10-4.5,10-10S58.9,39.5,53.4,39.5z"/>
			<path class="st4" d="M53.4,53.5L53.4,53.5c-0.5,0-0.9-0.3-1.2-0.6l-3.5-4.5c-0.5-0.6-0.4-1.6,0.3-2.1c0.6-0.5,1.6-0.4,2.1,0.3
				l2.4,3.1l6.8-7.6c0.5-0.6,1.5-0.7,2.1-0.1c0.6,0.5,0.6,1.5,0.1,2.1l-8,9C54.3,53.3,53.9,53.5,53.4,53.5z"/>
		</g>
	</g>
	<path class="st1" d="M23.4,46.7v-5.6c0-5,4.1-9.1,9.1-9.1l0,0c5,0,9.1,4.1,9.1,9.1v6.1"/>
	<path class="st2" d="M10.8,49.4L10.8,49.4c-0.9,0-1.6-0.7-1.6-1.6V30.1c0-0.9,0.7-1.6,1.6-1.6l0,0c0.9,0,1.6,0.7,1.6,1.6v17.8
		C12.4,48.7,11.7,49.4,10.8,49.4z"/>
	<path class="st2" d="M17.3,57L17.3,57c0-0.8,0.7-1.5,1.6-1.5h17.8c0.9,0,1.6,0.7,1.6,1.5l0,0c0,0.8-0.7,1.5-1.6,1.5H18.8
		C18,58.4,17.3,57.8,17.3,57z"/>
	<path class="st2" d="M54.2,53.5L54.2,53.5c-0.9,0-1.6-0.7-1.6-1.6V31.1c0-0.9,0.7-1.6,1.6-1.6l0,0c0.9,0,1.6,0.7,1.6,1.6V52
		C55.8,52.8,55.1,53.5,54.2,53.5z"/>
	<path class="st5" d="M23.4,48.2L23.4,48.2c-0.6,0-1-0.5-1-1v-4.4c0-0.6,0.5-1,1-1l0,0c0.6,0,1,0.5,1,1v4.4
		C24.4,47.8,24,48.2,23.4,48.2z"/>
	<path class="st5" d="M41.6,48.2L41.6,48.2c-0.6,0-1-0.5-1-1v-4.4c0-0.6,0.5-1,1-1l0,0c0.6,0,1,0.5,1,1v4.4
		C42.6,47.8,42.2,48.2,41.6,48.2z"/>
	<circle class="st6" cx="44.3" cy="26.8" r="3.4"/>
</g>
<g id="Layer_1" class="st7">
</g>
</svg>
