<svg xmlns="http://www.w3.org/2000/svg" x="0px" y="0px"
width="48" height="48"
viewBox="0 0 172 172"
style=" fill:#000000;"><g fill="none" fill-rule="nonzero" stroke="none" stroke-width="1" stroke-linecap="butt" stroke-linejoin="miter" stroke-miterlimit="10" stroke-dasharray="" stroke-dashoffset="0" font-family="none" font-weight="none" font-size="none" text-anchor="none" style="mix-blend-mode: normal"><path d="M0,172v-172h172v172z" fill="none"></path><g><path d="M75.25,111.08333c0,3.956 3.21067,7.16667 7.16667,7.16667h60.91667c3.956,0 7.16667,-3.21067 7.16667,-7.16667v-53.75c0,-3.956 -3.21067,-7.16667 -7.16667,-7.16667h-60.91667c-3.956,0 -7.16667,3.21067 -7.16667,7.16667z" fill="#03a9f4"></path><path d="M150.5,60.82708v-3.49375c0,-1.53367 -0.49092,-2.94908 -1.31508,-4.11367l-40.36267,24.83967l-27.0255,-16.684l-2.5155,6.708l30.31142,17.91667z" fill="#b3e5fc"></path><path d="M96.75,148.565l-75.25,-14.33333v-100.33333l75.25,-14.33333z" fill="#0277bd"></path><path d="M76.024,65.61442c-3.9345,-4.56875 -9.12317,-6.85492 -15.50867,-6.85492c-6.77967,0 -12.212,2.39725 -16.3185,7.17742c-4.09933,4.79092 -6.15975,11.06533 -6.15975,18.79817c0,7.32792 2.021,13.3085 6.05583,17.8665c4.03483,4.56158 9.288,6.84417 15.68783,6.84417c6.59333,0 11.93608,-2.33633 16.03183,-7.07708c4.09575,-4.70492 6.13467,-10.90408 6.13467,-18.62975c0,-7.482 -1.97442,-13.5235 -5.92325,-18.1245zM68.25892,95.80042c-2.03533,2.75558 -4.79808,4.128 -8.28825,4.128c-3.36475,0 -6.08808,-1.41183 -8.18792,-4.25342c-2.08192,-2.81292 -3.1175,-6.66858 -3.1175,-11.50608c0,-4.78733 1.03558,-8.65017 3.1175,-11.55625c2.09983,-2.9025 4.902,-4.33942 8.43875,-4.33942c3.44717,0 6.15617,1.40825 8.12342,4.22117c1.98875,2.84875 2.98492,6.79042 2.98492,11.86083c0.00358,4.89125 -1.032,8.69675 -3.07092,11.44517z" fill="#ffffff"></path></g></g></svg>