<?xml version="1.0" encoding="utf-8"?>
<!-- Generator: Adobe Illustrator 23.0.3, SVG Export Plug-In . SVG Version: 6.00 Build 0)  -->
<svg version="1.1" xmlns="http://www.w3.org/2000/svg" xmlns:xlink="http://www.w3.org/1999/xlink" x="0px" y="0px"
	 viewBox="0 0 512 512" style="enable-background:new 0 0 512 512;" xml:space="preserve">
<style type="text/css">
	.st0{fill:#C9CCDC;}
	.st1{fill:#6B75CA;}
</style>
<g id="Capa_1">
	<g>
		<g>
			<path class="st0" d="M247.3,233.4c5.9-4.7,11.9-9.3,18-13.8c-1.2-1.2-2.3-2.5-3.5-3.7c-15.7-15.7-34.4-27.3-54.7-34.3
				c21.8-15,36.2-40.2,36.2-68.6c0-45.9-37.4-83.3-83.3-83.3S76.7,67.1,76.7,113c0,28.4,14.3,53.6,36.2,68.6
				c-19.7,6.8-37.7,17.8-53.1,32.7c5.3,5.2,9.9,11.3,14.2,17.6c22-22,52.4-35.7,85.9-35.7C194.3,196.3,225.2,210.6,247.3,233.4z
				 M160,173.8c-33.5,0-60.8-27.3-60.8-60.8s27.3-60.8,60.8-60.8s60.8,27.3,60.8,60.8S193.5,173.8,160,173.8z"/>
		</g>
	</g>
</g>
<g id="Capa_1_copy">
	<g>
		<g>
			<path class="st0" d="M444.7,326.3c-17.1-17.1-37.4-29.7-59.5-37.3c23.7-16.3,39.3-43.7,39.3-74.6c0-49.9-40.6-90.5-90.5-90.5
				s-90.5,40.6-90.5,90.5c0,30.9,15.6,58.3,39.3,74.6c-13.8,4.8-26.9,11.5-39,20c5.4,6.2,9.7,13.8,13.5,20.5
				c21.6-15.5,48.1-24.6,76.6-24.6c72.8,0,132.1,59.3,132.1,132.1h24.5C490.5,395.2,474.3,355.9,444.7,326.3z M334,280.5
				c-36.4,0-66.1-29.6-66.1-66.1c0-36.4,29.6-66.1,66.1-66.1c36.4,0,66.1,29.6,66.1,66.1C400,250.8,370.4,280.5,334,280.5z"/>
		</g>
	</g>
	<path class="st0" d="M478.6,415.9H294.3c-5.8,0-10.6,4.8-10.6,10.6l0,0c0,5.8,4.8,10.6,10.6,10.6h184.2c5.8,0,10.6-4.8,10.6-10.6
		l0,0C489.1,420.7,484.4,415.9,478.6,415.9z"/>
	<circle class="st1" cx="162.6" cy="365.9" r="50"/>
</g>
</svg>
